<?xml version="1.0" standalone="no"?>
<!DOCTYPE svg PUBLIC "-//W3C//DTD SVG 20010904//EN"
 "http://www.w3.org/TR/2001/REC-SVG-20010904/DTD/svg10.dtd">
<svg version="1.0" xmlns="http://www.w3.org/2000/svg"
 width="2013.000000pt" height="2013.000000pt" viewBox="0 0 2013.000000 2013.000000"
 preserveAspectRatio="xMidYMid meet">
<metadata>
Created by potrace 1.11, written by Peter Selinger 2001-2013
</metadata>
<g transform="translate(0.000000,2013.000000) scale(0.100000,-0.100000)"
fill="#000000" stroke="none">
<path d="M10437 19964 c-1 -1 -87 -4 -192 -8 -104 -4 -215 -9 -245 -11 -30 -2
-91 -7 -135 -10 -78 -5 -129 -10 -230 -19 -27 -3 -79 -8 -115 -11 -36 -3 -74
-8 -85 -10 -11 -2 -47 -7 -80 -10 -33 -4 -71 -8 -85 -11 -14 -2 -45 -7 -70
-10 -403 -47 -1068 -191 -1565 -338 -1002 -297 -1995 -761 -2860 -1339 -198
-132 -601 -421 -625 -447 -3 -3 -34 -28 -70 -55 -78 -60 -405 -332 -475 -396
-27 -25 -81 -74 -120 -109 -156 -142 -412 -393 -565 -556 -504 -534 -924
-1080 -1317 -1709 -194 -311 -301 -505 -492 -890 -343 -689 -590 -1357 -781
-2110 -37 -148 -70 -283 -73 -300 -3 -16 -12 -64 -21 -105 -53 -242 -108 -568
-141 -830 -9 -69 -18 -136 -20 -150 -3 -25 -14 -133 -20 -203 -2 -21 -6 -64
-9 -95 -42 -424 -52 -1145 -21 -1592 2 -30 7 -100 10 -155 4 -55 9 -107 10
-116 2 -9 6 -57 10 -105 3 -49 8 -102 10 -119 2 -16 11 -88 20 -160 20 -163
63 -459 80 -545 3 -14 12 -63 20 -110 9 -47 20 -107 25 -135 40 -217 158 -692
220 -890 10 -33 44 -141 76 -240 114 -364 258 -746 416 -1099 159 -358 408
-843 508 -988 101 -146 231 -260 388 -337 148 -74 279 -104 452 -105 163 -1
233 10 375 58 244 83 470 287 575 520 32 70 74 207 84 271 3 22 8 51 11 65 2
14 7 43 10 65 6 44 21 125 60 320 15 72 29 141 31 155 3 14 11 52 20 85 8 33
16 69 18 80 2 11 9 40 16 65 7 25 13 52 15 60 2 8 11 44 20 80 9 36 18 70 19
75 33 146 179 608 271 855 138 372 410 956 516 1110 9 14 16 27 16 30 0 3 6
16 15 30 8 14 46 77 84 140 38 63 83 136 101 162 18 26 33 52 33 57 0 5 3 11
8 13 4 2 31 39 61 83 50 74 209 294 221 305 3 3 43 52 89 110 217 269 541 604
751 776 19 16 40 34 45 40 18 19 207 169 295 232 47 34 94 69 105 78 43 35
308 205 440 284 196 116 507 272 725 364 102 43 194 81 205 86 183 78 713 241
978 301 51 11 101 23 112 25 18 4 69 15 135 29 14 2 36 7 50 10 44 9 71 14
254 44 100 17 204 33 231 36 28 4 61 8 75 10 79 11 111 15 165 20 33 3 71 8
85 10 22 3 90 9 220 20 19 2 87 6 150 9 63 4 142 9 175 12 33 3 204 7 380 9
351 5 537 13 665 30 19 2 60 7 90 10 30 3 80 10 110 15 30 5 72 12 94 16 21 3
48 8 60 10 11 3 37 7 56 10 41 5 342 79 415 101 86 26 289 93 310 102 11 5 62
26 114 46 1000 393 1851 1144 2394 2110 176 314 391 860 451 1145 3 14 15 66
26 115 12 50 23 101 25 115 2 14 11 63 20 110 23 118 33 191 50 360 19 201 24
525 12 757 -9 160 -39 426 -67 588 -12 66 -23 134 -26 150 -3 17 -25 111 -49
210 -144 597 -394 1139 -731 1587 -41 54 -84 109 -96 124 -506 604 -1106 1004
-1884 1259 -235 77 -625 167 -864 199 -19 3 -69 10 -110 16 -80 11 -125 16
-235 25 -38 3 -88 8 -110 10 -107 12 -786 28 -798 19z"/>
<path d="M17668 16756 c-1 -2 -23 -6 -48 -9 -25 -3 -83 -15 -128 -26 -75 -19
-100 -27 -182 -64 -45 -20 -173 -99 -204 -126 -89 -77 -123 -112 -177 -184
-117 -155 -179 -322 -223 -598 -3 -20 -8 -42 -10 -50 -3 -8 -7 -30 -10 -49 -4
-27 -42 -201 -60 -275 -2 -5 -6 -21 -9 -35 -4 -14 -14 -56 -23 -95 -24 -105
-130 -492 -170 -619 -166 -536 -354 -1004 -585 -1461 -122 -242 -148 -290
-283 -515 -395 -661 -869 -1228 -1416 -1690 -36 -30 -67 -57 -70 -60 -16 -18
-205 -161 -325 -246 -275 -196 -496 -330 -800 -484 -179 -90 -266 -130 -490
-225 -309 -131 -837 -287 -1245 -369 -135 -27 -136 -27 -285 -51 -55 -9 -125
-20 -157 -26 -31 -5 -76 -11 -100 -14 -23 -2 -65 -6 -93 -10 -152 -19 -263
-30 -415 -40 -187 -13 -233 -15 -440 -20 -432 -10 -606 -16 -650 -20 -25 -3
-72 -7 -105 -11 -33 -4 -73 -8 -90 -9 -16 -2 -47 -6 -67 -9 -21 -3 -54 -8 -73
-11 -91 -13 -118 -18 -230 -41 -66 -14 -156 -34 -200 -45 -44 -12 -87 -22 -95
-24 -39 -8 -257 -78 -356 -114 -308 -110 -596 -249 -894 -432 -54 -32 -261
-171 -284 -190 -6 -5 -58 -45 -116 -89 -166 -128 -273 -222 -451 -400 -293
-292 -521 -582 -729 -930 -78 -130 -224 -414 -274 -535 -21 -49 -43 -103 -51
-120 -7 -16 -27 -70 -45 -120 -18 -49 -36 -99 -41 -110 -21 -51 -113 -371
-124 -436 -3 -18 -8 -35 -10 -39 -2 -4 -7 -22 -10 -41 -3 -19 -10 -53 -16 -77
-5 -23 -12 -59 -15 -80 -3 -20 -7 -44 -9 -52 -3 -8 -7 -33 -10 -55 -4 -22 -10
-67 -15 -100 -5 -33 -12 -87 -15 -120 -3 -33 -7 -73 -10 -90 -23 -174 -23
-667 -1 -805 3 -14 10 -65 16 -115 17 -125 18 -131 51 -285 131 -616 432
-1262 845 -1815 230 -309 551 -645 824 -865 30 -25 57 -47 60 -50 12 -14 206
-154 305 -221 662 -449 1455 -721 2260 -776 214 -15 944 -7 1110 12 17 2 71 6
120 10 50 3 108 8 130 10 22 2 69 7 105 10 36 3 76 7 90 10 14 2 52 7 85 10
33 3 71 7 85 10 14 2 48 7 75 10 28 3 61 8 75 10 14 3 41 7 60 9 45 6 94 14
200 32 47 9 101 17 120 20 134 18 678 141 926 209 473 130 1065 338 1399 490
30 14 56 25 58 25 3 0 48 20 101 45 53 25 99 45 102 45 2 0 116 55 252 123
248 124 490 254 656 354 49 29 90 53 91 53 10 0 449 282 570 366 85 59 310
221 335 241 8 6 78 60 155 119 77 59 167 131 201 158 33 28 82 69 109 91 51
42 226 194 235 204 3 3 23 21 45 40 164 138 571 544 785 781 51 58 97 107 100
110 43 37 409 491 557 690 174 235 459 657 537 795 9 17 31 53 48 80 161 262
424 761 557 1060 30 66 67 148 83 183 15 34 28 65 28 67 0 3 9 24 19 48 136
295 371 989 486 1432 53 208 141 601 159 715 3 19 10 60 16 90 6 30 13 70 16
89 6 49 14 94 19 111 2 8 7 38 10 65 3 28 10 75 15 105 5 30 12 80 15 110 4
30 8 66 10 80 3 22 8 63 20 170 5 42 14 134 20 210 2 30 7 87 11 125 3 39 7
99 9 135 2 36 7 137 11 225 14 290 8 948 -11 1140 -2 22 -7 80 -10 130 -4 49
-9 108 -11 130 -12 130 -16 173 -30 300 -8 77 -17 147 -19 155 -2 8 -7 40 -10
70 -5 46 -29 204 -51 335 -57 347 -166 832 -249 1110 -20 66 -38 127 -40 135
-17 68 -136 429 -200 605 -173 476 -428 1040 -657 1453 -39 70 -83 150 -99
179 -35 64 -123 205 -146 235 -171 211 -375 339 -623 389 -51 10 -284 22 -292
15z"/>
</g>
</svg>
